# xmcd
#
# Track frame offsets:
#	150
#	18377
#	20117
#	21205
#	25415
#
# Disc length: 580 seconds
#
# Revision: 1
# Processed by: cddbd v1.5.1PL0 Copyright (c) Steve Scherf et al.
# Submitted via: CDex 1.50Beta5
#
DISCID=37024205
DTITLE=福圓美里 - プロテイン美里
DYEAR=1900
DGENRE=
TTITLE0=プロテイン美里
TTITLE1=美里GO!GO!
TTITLE2=地球防衛軍
TTITLE3=生まれたね生まれたよ
TTITLE4=プロテイン美里(karaoke)
EXTD=
EXTT0=
EXTT1=
EXTT2=
EXTT3=
EXTT4=
PLAYORDER=
